<svg width="70" height="50" viewBox="0 0 70 50" fill="none" xmlns="http://www.w3.org/2000/svg">
<path fill-rule="evenodd" clip-rule="evenodd" d="M1.85082 3.46819C-0.471946 5.34351 0.27091 14.7516 0.745608 19.106C1.26555 23.7689 2.21317 26.8524 4.90246 29.0224C6.77501 30.524 8.42943 30.4356 9.4294 28.2119C10.0764 26.18 10.0756 23.8757 9.14742 21.7757C8.10544 18.1759 8.51135 8.88002 8.51397 3.37305C8.53374 0.672023 5.93618 0.717292 4.54659 2.51477C3.96666 3.16418 2.49755 3.00852 1.85082 3.46819Z" fill="#FFED00"/>
<path fill-rule="evenodd" clip-rule="evenodd" d="M13.7421 11.8507C12.3951 12.1873 9.92516 13.4202 10.7646 16.7211C11.3919 19.735 9.69491 23.5582 12.4072 24.3828C12.8435 24.5719 14.4211 24.9726 14.5121 24.5777C14.7861 23.5485 16.8653 24.4612 17.6436 24.82C19.0928 25.394 20.8341 25.432 22.4693 24.9343C24.9735 24.2496 24.2127 20.3022 22.6552 20.105C20.2424 19.9009 17.2699 21.3381 15.7332 19.6732C18.0471 19.6866 20.3609 19.7003 22.6748 19.6334C24.3383 19.6532 25.3117 18.9028 25.6744 18.0703C26.082 17.2826 27.1526 17.7973 27.1334 16.9503C27.1124 16.0075 23.38 15.0698 23.4554 12.3891C23.4415 11.2882 19.5472 8.59625 17.6216 10.6856C17.2648 11.1712 15.3199 11.6816 13.7421 11.8507V11.8507ZM15.0804 16.7801C16.4608 16.4068 17.6514 15.8121 19.1912 15.5846C17.9967 14.4889 16.8286 14.221 16.0057 15.3654C15.6338 15.9337 15.4521 16.2119 15.0805 16.7801H15.0804Z" fill="#FFED00"/>
<path fill-rule="evenodd" clip-rule="evenodd" d="M27.253 14.0261C28.739 17.8536 29.9772 21.8577 32.6186 24.903C33.5999 26.3161 37.3601 26.9978 37.2135 24.1459C38.7544 21.9167 40.2953 19.6872 41.8358 17.4581C42.487 16.2553 41.7076 14.9008 40.983 14.3038C41.3957 11.62 38.5341 10.9304 37.5985 13.5972C36.8191 15.4141 36.0393 17.231 35.2599 19.0482C34.8977 20.05 34.3332 20.2035 33.8017 19.1239C32.8937 17.1553 31.9856 15.187 31.0776 13.2183C29.555 10.1816 26.5468 12.4951 27.253 14.0262L27.253 14.0261Z" fill="#FFED00"/>
<path fill-rule="evenodd" clip-rule="evenodd" d="M44.312 23.0615C44.7439 23.8468 45.6179 24.3786 46.6028 24.5044C47.5599 24.34 47.8679 24.1883 48.3143 23.6693C49.7175 24.34 51.5483 25.1375 53.1448 25.0362C54.4764 25.0447 55.6422 24.952 56.5875 24.0742C57.1767 22.7988 56.9103 21.7763 56.2852 20.4498C54.8602 20.1162 53.6146 20.808 52.0654 20.8414C50.7941 20.7448 48.7912 20.3826 48.8311 19.6404C51.6214 19.0925 54.6737 19.6203 57.5328 19.2874C58.2532 18.7328 58.9874 18.0141 59.0728 17.1686C58.7548 15.3891 57.8296 13.7996 56.7114 12.2478C55.6 11.3548 54.3508 10.4743 52.9636 10.176C49.4083 10.7722 44.9127 12.231 44.2879 13.943C43.7428 17.1853 44.5252 19.9711 44.3121 23.0614L44.312 23.0615ZM48.144 16.615C48.546 15.7345 49.3066 14.7783 50.4263 14.2015C51.287 14.5032 52.0789 14.957 52.3464 15.4487C51.0423 16.1666 49.5309 16.5047 48.144 16.615Z" fill="#FFED00"/>
<path fill-rule="evenodd" clip-rule="evenodd" d="M60.6006 2.13165C60.83 9.9165 59.1247 19.6043 61.4582 25.2587C63.3848 27.3706 67.9073 30.3957 68.9496 24.8009C69.0539 17.6987 69.3735 10.6006 69.0049 3.50043C68.0832 3.19642 67.4101 2.72729 66.2402 2.58776C66.4614 1.77626 65.3073 0.995809 64.9414 0.458304C62.9701 0.298673 61.8546 1.27862 60.6007 2.13173L60.6006 2.13165Z" fill="#FFED00"/>
<path fill-rule="evenodd" clip-rule="evenodd" d="M13.6705 28.8935C14.0335 33.3002 12.3273 38.9723 13.126 42.1136C16.5749 44.5 12.3273 47.4859 18.6807 48.6735C23.364 47.5413 27.1761 46.1762 30.9881 43.6785C33.8742 39.9626 33.6058 35.4382 32.9487 31.058C31.5066 29.9057 30.3467 28.1611 28.2291 28.2609C26.8493 28.9936 25.2856 29.9252 24.8499 31.1905C25.1162 32.6335 26.0748 36.1417 25.6512 39.6825C24.7798 40.9592 22.9646 40.604 21.6214 40.5153C19.6972 37.3184 20.75 33.9886 20.641 30.7251C20.145 30.159 19.5036 30.8917 18.9349 30.2255C18.717 28.8048 19.2978 27.4174 16.8654 27.162C15.5462 27.4727 13.7553 28.2164 13.6704 28.8935H13.6705Z" fill="#FFED00"/>
<path fill-rule="evenodd" clip-rule="evenodd" d="M39.6231 25.6725C37.2764 26.8792 36.403 29.0662 35.3453 30.8135C35.5794 31.9852 35.9238 32.3464 37.0417 32.5048C36.9072 36.6762 37.1401 40.5773 38.0741 44.4106C39.1066 45.5382 39.8814 45.5833 40.8036 46.4397C41.5895 47.6124 40.7921 48.5819 42.2044 49.4843C43.6548 49.6193 44.9208 49.619 46.3346 49.0784C46.6041 46.6433 45.511 44.7826 45.744 42.6854C56.7008 40.9354 57.7694 34.8891 58.3564 30.9487C57.6376 24.9452 45.5743 26.4411 41.6143 27.0254C41.687 26.1352 40.7288 25.5828 39.6229 25.6725L39.6231 25.6725ZM43.6791 36.3612C42.5698 34.7282 42.4953 33.2871 43.5682 31.1179C47.3532 30.837 49.5894 31.2391 52.0873 32.2343C50.1317 34.3981 46.6293 35.7173 43.679 36.3612H43.6791Z" fill="#FFED00"/>
<path d="M2.25548 3.82971C1.22771 4.68068 0.874776 7.36439 0.831306 10.3625C0.786678 13.4622 1.08966 16.8859 1.32616 19.0543C1.58181 21.3477 1.941 23.2482 2.56232 24.8304C3.17214 26.3843 4.04 27.6385 5.32049 28.6718L5.3211 28.671C5.64362 28.9294 5.95455 29.1358 6.25043 29.2861C6.77423 29.5521 7.25928 29.6509 7.68935 29.5633C8.10583 29.4788 8.48803 29.2106 8.82112 28.7412C8.96149 28.5436 9.09221 28.314 9.21158 28.0529C9.52553 27.0599 9.67717 25.9997 9.63069 24.9343C9.58668 23.9322 9.36701 22.924 8.94165 21.9618L8.92806 21.9317L8.92065 21.9049C8.07294 18.9764 8.16096 12.4685 8.23284 7.13908C8.25145 5.77761 8.2689 4.49309 8.26921 3.37297V3.36932C8.27307 2.85913 8.17138 2.47427 7.99935 2.20306C7.84416 1.95892 7.62426 1.80477 7.37209 1.73298C7.09899 1.65546 6.78242 1.67032 6.45898 1.76824C5.95146 1.92144 5.43684 2.27382 5.0348 2.79377L5.01527 2.81807C4.59732 3.28633 3.92812 3.41093 3.28255 3.5307C2.86962 3.60765 2.46758 3.68239 2.2554 3.82955L2.25548 3.82971ZM0.00459765 10.3522C0.0516197 7.10295 0.485782 4.15532 1.76982 3.11859L1.78935 3.10311C2.15024 2.84651 2.6383 2.75557 3.13987 2.66257C3.65093 2.56775 4.18122 2.46887 4.41178 2.21537C4.92315 1.56262 5.57992 1.11748 6.23174 0.920763C6.69702 0.780034 7.16547 0.762641 7.58612 0.882166C8.02746 1.00709 8.41259 1.27894 8.68685 1.71066C8.94759 2.1211 9.10125 2.67353 9.09623 3.37647C9.09561 4.50659 9.07816 5.7896 9.05986 7.14956C8.9889 12.4012 8.90235 18.8103 9.70512 21.6219C10.1689 22.683 10.4092 23.7933 10.4574 24.8967C10.5091 26.08 10.34 27.2554 9.99065 28.3533L9.98501 28.3706L9.97112 28.4016C9.82063 28.7363 9.65717 29.0261 9.48252 29.272C9.01902 29.9248 8.46572 30.3021 7.8447 30.4283C7.23666 30.5517 6.57989 30.4271 5.89355 30.0786C5.54124 29.8995 5.18235 29.6633 4.82177 29.3738V29.372C3.41358 28.2358 2.46241 26.8634 1.79676 25.1678C1.14201 23.5005 0.766602 21.5264 0.502692 19.1577V19.1558C0.264416 16.9701 -0.041189 13.5123 0.00459765 10.3522Z" fill="#2B2A29"/>
<path d="M13.9871 12.2846C13.9428 12.2959 13.8969 12.308 13.8505 12.3214C13.2353 12.498 12.4311 12.8622 11.8665 13.519H11.8648C11.3194 14.1536 10.9943 15.086 11.2922 16.4323C11.305 16.4898 11.3189 16.5487 11.3339 16.6074L11.3372 16.6265C11.5695 17.742 11.503 18.9244 11.4403 20.0414C11.3372 21.8805 11.2452 23.5199 12.6898 23.9589L12.7108 23.9653L12.7318 23.9744C12.8441 24.0231 13.0425 24.0878 13.2706 24.1471C13.5535 24.2206 13.8784 24.2857 14.1396 24.3018V24.3022C14.2493 24.3103 14.2575 24.5029 14.2874 24.4396C14.5127 23.6372 15.2924 23.559 16.142 23.7476C16.8201 23.8978 17.5531 24.2222 17.9607 24.4098C18.6394 24.678 19.3884 24.8214 20.1602 24.8393C20.939 24.8579 21.7433 24.7482 22.5245 24.5104L22.5361 24.5086C23.1314 24.3462 23.497 23.9576 23.6835 23.4876C23.8203 23.1432 23.8665 22.7485 23.8402 22.3593C23.8133 21.9647 23.7128 21.5825 23.557 21.2661C23.3625 20.8711 23.0885 20.5869 22.7841 20.5437C21.9804 20.4774 21.093 20.603 20.2225 20.7267C18.4552 20.9775 16.7499 21.2198 15.6069 19.9815L14.9057 19.2221L15.9054 19.2336L15.9205 19.2339C18.2237 19.247 20.5275 19.2607 22.8337 19.194H22.847C23.5451 19.2022 24.1032 19.0651 24.5304 18.8426C24.9997 18.5978 25.308 18.2497 25.4668 17.8858L25.4798 17.8584C25.7627 17.3108 26.2028 17.2071 26.5938 17.115C26.7531 17.0776 26.8907 17.0448 26.8889 16.9605C26.8865 16.8475 26.4579 16.5568 25.9223 16.1938C24.7444 15.3954 23.163 14.3231 23.2106 12.3884C23.2049 12.268 23.0616 12.061 22.8272 11.8165C22.4849 11.4605 21.9771 11.0902 21.3983 10.8093C20.8255 10.5311 20.1897 10.3444 19.5902 10.3529C19.0353 10.3609 18.5074 10.5415 18.0942 10.9847C17.8515 11.283 17.2633 11.5581 16.5358 11.7767C15.7774 12.0044 14.8336 12.1911 13.987 12.2845L13.9871 12.2846ZM13.6362 11.4701C13.6983 11.4525 13.7589 11.436 13.8168 11.4217L13.8357 11.4169L13.8703 11.4132C14.6764 11.3269 15.583 11.1481 16.3118 10.9292C16.9072 10.7504 17.3544 10.5653 17.4646 10.415L17.4806 10.3931L17.4954 10.377C18.08 9.74274 18.8143 9.48495 19.5805 9.47399C20.3117 9.46367 21.069 9.68286 21.7421 10.0097C22.4098 10.3338 23.0028 10.768 23.4077 11.1897C23.7975 11.5953 24.0332 12.0215 24.0376 12.3839V12.4009C23.9971 13.8463 25.3553 14.7672 26.3668 15.4528C27.1091 15.956 27.7029 16.3588 27.7159 16.9398C27.7337 17.7462 27.2884 17.8516 26.7721 17.9732C26.5575 18.0236 26.3163 18.0808 26.2104 18.2739C25.9763 18.7996 25.5412 19.2939 24.8936 19.6314C24.5436 19.8138 24.1303 19.9503 23.653 20.0205C23.9072 20.2309 24.123 20.521 24.2897 20.8594C24.4981 21.2826 24.6326 21.7855 24.6669 22.2972C24.7023 22.814 24.6368 23.3479 24.4457 23.8289C24.1658 24.5333 23.6255 25.1141 22.7514 25.3564L22.7517 25.3579C21.8957 25.6184 21.0083 25.7382 20.1437 25.7179C19.2779 25.6975 18.4349 25.5355 17.6682 25.2318L17.6486 25.2233C17.2747 25.0508 16.589 24.7453 15.973 24.6088C15.5269 24.51 15.135 24.4878 15.0797 24.6964C15.0741 24.7174 15.0676 24.7368 15.0605 24.7557L15.059 24.7627C14.9277 25.1044 14.5512 25.209 14.0925 25.1805H14.091C13.7786 25.161 13.4008 25.0862 13.0757 25.0017C12.8123 24.9335 12.58 24.8579 12.439 24.7989C10.3796 24.1577 10.4893 22.193 10.6135 19.9897C10.6726 18.9362 10.7349 17.8213 10.5334 16.8347L10.5328 16.835C10.5153 16.7663 10.4991 16.6981 10.4846 16.6319C10.1121 14.9493 10.5416 13.756 11.2543 12.927L11.2535 12.9261C11.9472 12.1192 12.9067 11.6795 13.6362 11.47V11.4701ZM16.2622 16.0036L16.6036 15.8856C17.1623 15.6914 17.7231 15.4965 18.3302 15.3438C18.0505 15.1812 17.7834 15.0857 17.5357 15.0684C17.1869 15.0441 16.8608 15.1867 16.5782 15.5348C16.5582 15.5594 16.5368 15.5868 16.515 15.6172L16.2623 16.0036L16.2622 16.0036ZM16.8599 16.7229C16.363 16.8956 15.867 17.068 15.3515 17.2072L15.2492 16.78L14.9087 16.5283L15.8338 15.1139L15.8453 15.0984C15.8785 15.0519 15.9142 15.0051 15.952 14.9592C16.4206 14.3821 16.9777 14.1471 17.5875 14.1897C18.1527 14.2293 18.7456 14.5175 19.3365 14.9972C19.4323 15.0747 19.5307 15.1602 19.631 15.252L20.3223 15.8871L19.4169 16.0206C18.4847 16.158 17.67 16.4414 16.8598 16.7229H16.8599Z" fill="#2B2A29"/>
<path d="M27.8049 13.8589C28.0159 14.4025 28.2427 15.0061 28.4688 15.608C29.6836 18.8409 30.8999 22.0776 33.0924 24.6051L33.0989 24.613L33.1199 24.6428C33.4293 25.0885 34.0959 25.4533 34.805 25.6081C35.2088 25.6963 35.62 25.7124 35.9779 25.6321C36.2966 25.5606 36.5697 25.4101 36.7441 25.162C36.9043 24.9337 36.9915 24.6087 36.969 24.1684L36.9608 24.0121L37.0483 23.8856L41.6606 17.2126C41.8666 16.8137 41.8711 16.3875 41.7647 15.9937C41.6136 15.434 41.2489 14.9399 40.8989 14.6514L40.7035 14.4905L40.7431 14.2328C40.854 13.5125 40.6911 12.9814 40.3955 12.6709V12.6691C40.2613 12.528 40.0964 12.4313 39.9181 12.3839C39.7364 12.3358 39.5395 12.3386 39.345 12.3957C38.886 12.5307 38.4307 12.9649 38.1552 13.7502L38.144 13.7794L35.8065 19.2278C35.683 19.5634 35.5349 19.8246 35.369 20.0009C35.1956 20.1855 34.9978 20.2901 34.7817 20.3071H34.7799C34.563 20.3238 34.3489 20.2512 34.145 20.0803C33.9585 19.9246 33.7755 19.6756 33.6041 19.3269L33.5994 19.3169L30.8806 13.4225C30.402 12.47 29.7747 12.1429 29.2084 12.1748C28.992 12.1866 28.7795 12.2511 28.5856 12.3517C28.3893 12.4535 28.2144 12.5913 28.0745 12.75C27.7811 13.0817 27.6394 13.4992 27.7934 13.833L27.8049 13.8588V13.8589ZM27.7006 15.9318C27.4893 15.3697 27.2779 14.8075 27.0405 14.1955C26.7349 13.505 26.9598 12.7252 27.4712 12.1469C27.6799 11.9109 27.9368 11.7072 28.2223 11.5592C28.5093 11.4102 28.8307 11.3151 29.1662 11.2962C30.0248 11.2479 30.9518 11.6957 31.6115 13.0116L31.618 13.0253L34.3386 18.9235C34.4515 19.1525 34.5588 19.3051 34.6575 19.3878C34.6892 19.4146 34.7101 19.4277 34.7199 19.4286C34.7297 19.4279 34.751 19.41 34.7817 19.3772C34.8737 19.2799 34.962 19.1154 35.043 18.8913L35.0527 18.8655L37.3864 13.4259C37.7668 12.356 38.4351 11.751 39.1244 11.5482C39.4608 11.4494 39.8019 11.4455 40.1187 11.5294C40.4385 11.6142 40.7344 11.7885 40.9783 12.0448L40.9792 12.0439C41.4125 12.4994 41.6741 13.2093 41.5911 14.1232C41.9966 14.5179 42.3865 15.1016 42.5624 15.7526C42.7273 16.3631 42.7111 17.0344 42.3632 17.6771L42.3472 17.7066L42.339 17.7184L37.8005 24.2847C37.8047 24.8715 37.6581 25.3342 37.4091 25.6894C37.1044 26.1229 36.6566 26.3792 36.1466 26.4939C35.676 26.5993 35.1488 26.5808 34.6395 26.4699C33.7625 26.2783 32.9147 25.7992 32.4778 25.196C30.1891 22.5546 28.9438 19.2414 27.7006 15.9321V15.9318Z" fill="#2B2A29"/>
<path d="M44.9035 22.9478C45.0794 23.2238 45.3259 23.4601 45.6188 23.6443C45.9534 23.8553 46.3477 23.9989 46.7675 24.0596C47.1724 23.9881 47.4408 23.9198 47.6454 23.82H47.6471C47.841 23.7252 47.9933 23.5877 48.1783 23.3725L48.3805 23.1375L48.6533 23.2676C49.3456 23.5983 50.1412 23.9605 50.9459 24.2216C51.7363 24.4785 52.5453 24.6439 53.2893 24.5968H53.3153C53.9535 24.6011 54.5509 24.581 55.0939 24.4569C55.5793 24.346 56.0242 24.1478 56.4217 23.7996C56.6473 23.2794 56.7082 22.8093 56.6505 22.3378C56.5931 21.8699 56.4203 21.3838 56.1746 20.8413C55.4787 20.727 54.7927 20.8711 54.0762 21.0216C53.5034 21.1417 52.9118 21.2661 52.2423 21.2807L52.2134 21.2813L52.2048 21.2807C51.4436 21.2229 50.4239 21.0709 49.6959 20.8009C49.0207 20.5501 48.557 20.171 48.5866 19.6164L48.6049 19.271L48.9253 19.2081C50.5138 18.8961 52.1661 18.9238 53.8208 18.9518C55.0742 18.9731 56.3295 18.9944 57.5462 18.8624C57.8569 18.6173 58.1613 18.3446 58.3951 18.0527C58.6147 17.7788 58.7764 17.4857 58.8226 17.182C58.6688 16.3656 58.378 15.587 57.9964 14.8312C57.6056 14.0574 57.1191 13.3064 56.5861 12.5637C56.0547 12.138 55.493 11.7182 54.9089 11.3731C54.3393 11.0369 53.7428 10.7663 53.123 10.6228C51.212 10.9484 49.0397 11.5227 47.3682 12.2485C46.0844 12.8058 45.1181 13.4312 44.858 14.0618C44.5642 15.8473 44.6842 17.5119 44.803 19.1689C44.892 20.4091 44.981 21.6462 44.9036 22.9478L44.9035 22.9478ZM45.197 24.4022C44.7462 24.1185 44.3723 23.7382 44.1225 23.284L44.0578 23.1666L44.0673 23.0304C44.1562 21.7407 44.0664 20.4896 43.9762 19.2345C43.8521 17.5082 43.7274 15.7746 44.0477 13.8671L44.0539 13.8297L44.0704 13.7847C44.3977 12.8884 45.5478 12.0896 47.0565 11.4348C48.8113 10.6731 51.0862 10.0742 53.0693 9.74186L53.1412 9.72971L53.2136 9.7452C53.9549 9.90483 54.6531 10.2162 55.311 10.6044C55.9592 10.9875 56.5637 11.4414 57.1298 11.8963L57.1738 11.9322L57.209 11.9808C57.78 12.7731 58.3032 13.5776 58.7257 14.4141C59.1551 15.2647 59.4809 16.1489 59.6485 17.0875L59.6597 17.1507L59.6532 17.2152C59.6009 17.7353 59.3585 18.2042 59.0242 18.6213C58.7118 19.0114 58.3245 19.3519 57.9447 19.6441L57.8563 19.7122L57.7451 19.725C56.4549 19.8752 55.1301 19.853 53.8076 19.8305C52.4843 19.8083 51.1624 19.7861 49.8959 19.9429L49.9683 19.9703C50.6129 20.2096 51.547 20.347 52.2541 20.4012C52.8275 20.3857 53.3808 20.2693 53.9171 20.1567C54.782 19.975 55.6072 19.8017 56.543 20.0209L56.7351 20.0661L56.8238 20.2537C57.1554 20.9573 57.3928 21.5866 57.4708 22.2245C57.5521 22.8897 57.4611 23.5449 57.1274 24.2673L57.0902 24.3481L57.0287 24.4053C56.4966 24.8994 55.9067 25.1718 55.2658 25.3183C54.6637 25.456 54.0196 25.4795 53.3353 25.4758C52.4843 25.529 51.5798 25.3466 50.7058 25.0626C49.9497 24.8169 49.2234 24.4989 48.5761 24.1952C48.3955 24.3751 48.2157 24.5095 47.992 24.6187L47.9923 24.6196C47.702 24.7613 47.3544 24.8497 46.8368 24.9389L46.7768 24.9492L46.723 24.9422C46.1688 24.8713 45.6441 24.6841 45.1969 24.4022H45.197ZM47.94 16.4238C48.1735 15.9117 48.5191 15.3761 48.9746 14.8941C49.37 14.4758 49.8507 14.0958 50.4149 13.8051L50.5663 13.7272L50.7247 13.7826C51.2041 13.9507 51.6683 14.1666 52.046 14.4117C52.4154 14.6518 52.7105 14.9279 52.8736 15.228L53.0906 15.6275L52.7048 15.8397C52.0675 16.1909 51.3823 16.455 50.6853 16.6484C49.8988 16.8664 49.1013 16.9941 48.3437 17.0547L47.626 17.1118L47.9399 16.4238L47.94 16.4238ZM49.5584 15.5181C49.3863 15.7002 49.2329 15.8908 49.0984 16.0845C49.5574 16.0179 50.0216 15.9237 50.478 15.7971C50.9355 15.6701 51.3881 15.5098 51.8226 15.3104C51.7594 15.2611 51.6896 15.2116 51.6145 15.1629C51.3361 14.982 50.992 14.8169 50.6257 14.6786C50.2137 14.9115 49.8578 15.2016 49.5584 15.5181Z" fill="#2B2A29"/>
<path d="M61.1898 2.36698C61.2492 4.83912 61.1248 7.47963 61 10.1174C60.7355 15.7044 60.4721 21.2823 61.9772 25.0103C62.6446 25.7291 63.6109 26.5448 64.6209 27.058C65.2866 27.3964 65.9671 27.6001 66.578 27.5457C67.145 27.4953 67.6626 27.2082 68.0607 26.5731C68.3338 26.1367 68.5553 25.539 68.7054 24.747C68.7305 23.066 68.7671 21.3919 68.8038 19.7182C68.9197 14.4198 69.0358 9.12256 68.7752 3.82288C68.5588 3.74171 68.3558 3.65475 68.1532 3.56779C67.6206 3.33977 67.0873 3.11145 66.3635 3.02512L65.8749 2.96675L66.0115 2.46538C66.101 2.13698 65.6482 1.67 65.2707 1.28116C65.1371 1.14345 65.0106 1.01297 64.9048 0.886534C63.3973 0.819663 62.418 1.50552 61.4221 2.20298L61.4224 2.20385L61.1898 2.36682V2.36698ZM60.173 10.0761C60.3012 7.36296 60.4299 4.64669 60.3563 2.1454L60.3486 1.89515L60.5457 1.76109C60.6953 1.65952 60.8306 1.56437 60.9651 1.4701H60.9669C62.1214 0.661064 63.2556 -0.133678 65.1412 0.0189647L65.3331 0.0344514L65.446 0.199563C65.5299 0.322662 65.6827 0.480466 65.8479 0.65074C66.2751 1.09072 66.7696 1.60082 66.8435 2.21012C67.4808 2.3314 67.9715 2.54154 68.4615 2.75128C68.7335 2.86803 69.006 2.98477 69.2951 3.07992L69.5712 3.17141L69.5872 3.47637C69.8683 8.89487 69.7495 14.315 69.6307 19.7356C69.5937 21.4285 69.5565 23.1219 69.5319 24.8078L69.5311 24.8544L69.5254 24.8853C69.3531 25.8111 69.0865 26.5238 68.7516 27.0589C68.1939 27.9494 67.4576 28.3522 66.6461 28.4243C65.8791 28.4927 65.0547 28.2522 64.2643 27.8506C63.1292 27.2738 62.0527 26.3569 61.3306 25.5655L61.278 25.508L61.2479 25.4344C59.6316 21.5181 59.9024 15.8017 60.1731 10.0761L60.173 10.0761Z" fill="#2B2A29"/>
<path d="M14.2578 28.919C14.4192 30.9941 14.1396 33.3229 13.8727 35.5433C13.5825 37.9622 13.3075 40.2498 13.6587 41.8433C15.1387 42.9314 15.2397 44.1084 15.3341 45.2111C15.4411 46.4588 15.5386 47.5893 18.8421 48.2241C21.135 47.6674 23.216 47.0535 25.1857 46.2761C27.1552 45.499 29.0195 44.5568 30.8811 43.3431C32.2352 41.5752 32.8529 39.6135 33.0542 37.5725C33.2555 35.5324 33.0445 33.402 32.7344 31.2993C32.4279 31.0445 32.1364 30.7706 31.845 30.4963C30.8772 29.586 29.9021 28.6691 28.5007 28.6973C27.8537 29.0431 27.1724 29.4334 26.5992 29.8807C26.0793 30.2871 25.6549 30.7363 25.4494 31.2312C25.4896 31.4394 25.5363 31.6599 25.5886 31.9065C25.9584 33.6526 26.5975 36.6683 26.2303 39.7379L26.2167 39.8516L26.1558 39.9413C25.2581 41.2565 23.6528 41.1164 22.2892 40.9975H22.2877C22.0894 40.9802 21.8979 40.9631 21.766 40.9546L21.5555 40.9406L21.4414 40.7512C19.9833 38.3284 20.1441 35.8875 20.3052 33.4534C20.3604 32.6133 20.4163 31.7736 20.4018 30.9555C20.3058 30.922 20.1834 30.9345 20.0581 30.947C19.6519 30.9877 19.2311 31.0303 18.7971 30.5219L18.7147 30.4258L18.6951 30.296C18.6461 29.9777 18.6348 29.67 18.6239 29.3745C18.592 28.5152 18.5645 27.7847 17.0578 27.6068C16.3748 27.7734 15.5714 28.0568 14.9695 28.3832C14.5885 28.5894 14.31 28.7834 14.2578 28.9189L14.2578 28.919ZM13.0521 35.4332C13.3155 33.2421 13.5916 30.9432 13.4257 28.9315L13.4225 28.8899L13.429 28.8366C13.4875 28.3682 13.9536 27.9437 14.5933 27.5974C15.2708 27.2301 16.1833 26.9124 16.945 26.7327L17.0097 26.7178L17.0748 26.7244C19.3623 26.9644 19.4031 28.0546 19.4507 29.3401C19.4587 29.5578 19.467 29.7828 19.4921 30.0047C19.637 30.1063 19.8114 30.0887 19.9804 30.0716C20.3644 30.033 20.7365 29.9953 21.1131 30.4252L21.2177 30.5449L21.2234 30.7094C21.2547 31.6543 21.1935 32.5832 21.132 33.512C20.9851 35.7382 20.8379 37.9704 22.03 40.0914C22.1453 40.1002 22.2502 40.1093 22.3557 40.1185V40.1188C23.4704 40.2161 24.7766 40.3292 25.4237 39.5071C25.7414 36.6328 25.1343 33.7678 24.781 32.0996C24.7104 31.7658 24.6489 31.4772 24.6116 31.275L24.5898 31.1561L24.6294 31.0406C24.8795 30.3139 25.4319 29.7001 26.1094 29.1708C26.7479 28.6722 27.5045 28.244 28.2131 27.868L28.2926 27.8257L28.3801 27.8214C30.1599 27.7375 31.2804 28.7916 32.3931 29.8381C32.715 30.1409 33.0362 30.4431 33.3655 30.7065L33.4997 30.8141L33.5264 30.9889C33.8595 33.2105 34.0939 35.4725 33.8778 37.6622C33.6585 39.8853 32.9781 42.0248 31.4765 43.9579L31.4325 44.0144L31.3746 44.0525C29.4441 45.3173 27.5139 46.295 25.4746 47.0998C23.4386 47.9031 21.2977 48.533 18.9404 49.1028L18.8576 49.1229L18.7781 49.108C14.774 48.3595 14.6487 46.9013 14.5106 45.2905C14.4311 44.3599 14.3454 43.3651 13.0696 42.4824L12.9357 42.3897L12.8943 42.2273C12.4474 40.4685 12.7412 38.0237 13.0522 35.4334L13.0521 35.4332Z" fill="#2B2A29"/>
<path d="M39.8992 26.1067C38.1251 27.0489 37.2374 28.6281 36.4186 30.0859C36.262 30.3647 36.1071 30.6392 35.9564 30.8953C36.0474 31.295 36.1535 31.5581 36.3149 31.7204C36.4976 31.904 36.7941 32.0023 37.2641 32.0688L37.6368 32.1217L37.6241 32.5185C37.5576 34.5817 37.5821 36.5825 37.7397 38.5481C37.8931 40.4642 38.1724 42.3361 38.6161 44.1852C39.121 44.7154 39.5705 44.9785 40.0119 45.2363C40.4115 45.4701 40.8055 45.7006 41.2451 46.1088L41.2818 46.1432L41.3099 46.1848C41.6938 46.7574 41.7556 47.2641 41.8138 47.7424C41.8709 48.2146 41.9244 48.649 42.5064 49.0537C43.1774 49.1136 43.807 49.1413 44.423 49.0953C44.9837 49.0531 45.54 48.95 46.1164 48.7542C46.1897 47.6721 45.9881 46.6858 45.7936 45.7336C45.5835 44.7069 45.3813 43.7166 45.5013 42.6336L45.5385 42.2995L45.8515 42.2493C51.2094 41.3938 54.1348 39.5069 55.7869 37.3592C57.4106 35.2483 57.8223 32.8507 58.1072 30.9447C57.7443 28.2636 54.7328 27.2418 51.3377 26.956C47.7758 26.6557 43.8037 27.1716 41.8402 27.4614L41.3252 27.5374L41.3702 26.9874C41.3731 26.9503 41.3734 26.9159 41.371 26.8849C41.3574 26.6946 41.2493 26.5289 41.0805 26.4018C40.8732 26.2459 40.5788 26.1449 40.2416 26.1136V26.1133C40.1301 26.1035 40.0154 26.1008 39.8993 26.1066L39.8992 26.1067ZM35.7084 29.6344C36.5992 28.0483 37.5659 26.3283 39.6119 25.2761L39.6834 25.2393L39.7611 25.2332C39.95 25.218 40.1348 25.2189 40.3112 25.235H40.3127C40.7909 25.2791 41.2275 25.4369 41.5574 25.6853C41.8471 25.9033 42.056 26.1882 42.1486 26.5281C44.255 26.2293 48.0033 25.7911 51.4023 26.0772C55.1829 26.3962 58.5431 27.6157 58.9356 30.8937L58.9431 30.9564L58.9339 31.0178C58.6327 33.0411 58.2067 35.6069 56.429 37.9176C54.6957 40.1705 51.6934 42.1486 46.2998 43.0677C46.2656 43.891 46.4319 44.7064 46.604 45.548C46.8292 46.6492 47.063 47.7936 46.9152 49.1283L46.8853 49.3992L46.643 49.492C45.8954 49.7778 45.1898 49.921 44.4813 49.9742C43.7784 50.0271 43.0794 49.9928 42.3375 49.9238L42.2441 49.9153L42.161 49.8618C41.1595 49.2224 41.0797 48.5672 40.9928 47.8527C40.9494 47.4955 40.9033 47.117 40.6621 46.7357C40.3083 46.4156 39.963 46.213 39.613 46.0088C39.0972 45.7075 38.571 45.3998 37.9464 44.7175L37.8702 44.6345L37.8427 44.5211C37.3683 42.5746 37.0724 40.6167 36.9124 38.6207C36.7632 36.7555 36.7327 34.8464 36.7856 32.875C36.3363 32.7756 36.0076 32.6202 35.7472 32.3581C35.4209 32.0301 35.2432 31.5783 35.1087 30.9052L35.0733 30.7282L35.1655 30.5759C35.3561 30.2609 35.5309 29.9502 35.7082 29.6346L35.7084 29.6344ZM43.5125 36.6178C42.9089 35.7294 42.5864 34.8836 42.561 33.9526C42.5359 33.0377 42.8007 32.0654 43.3709 30.9128L43.4782 30.6958L43.7099 30.6784C45.628 30.5361 47.1594 30.5675 48.5327 30.7614C49.9117 30.956 51.1236 31.3136 52.4005 31.8222L52.9902 32.0572L52.5545 32.5391C51.6328 33.5595 50.3904 34.3953 49.0269 35.0647C47.3941 35.8661 45.5777 36.4326 43.9307 36.7917L43.6694 36.8489L43.5124 36.6178L43.5125 36.6178ZM43.3877 33.9286C43.406 34.5901 43.6239 35.2137 44.0318 35.8708C45.5482 35.5227 47.1934 34.9948 48.68 34.2651C49.7331 33.748 50.7032 33.1311 51.4845 32.4071C50.4878 32.0463 49.5097 31.7863 48.4261 31.6334C47.1666 31.4555 45.7557 31.4212 43.9991 31.5406C43.5687 32.4591 43.3686 33.2274 43.3878 33.9285L43.3877 33.9286Z" fill="#2B2A29"/>
</svg>
