<svg width="50" height="50" viewBox="0 0 50 50" fill="none" xmlns="http://www.w3.org/2000/svg">
<circle cx="25" cy="25" r="25" fill="#FFED00"/>
<path d="M23 39C23 40.1046 23.8954 41 25 41C26.1046 41 27 40.1046 27 39L23 39ZM26.4142 9.58579C25.6332 8.80474 24.3668 8.80474 23.5858 9.58579L10.8579 22.3137C10.0768 23.0948 10.0768 24.3611 10.8579 25.1421C11.6389 25.9232 12.9052 25.9232 13.6863 25.1421L25 13.8284L36.3137 25.1421C37.0948 25.9232 38.3611 25.9232 39.1421 25.1421C39.9232 24.3611 39.9232 23.0948 39.1421 22.3137L26.4142 9.58579ZM27 39L27 11L23 11L23 39L27 39Z" fill="black"/>
</svg>
